<?xml version="1.0" encoding="utf-8"?>
<!-- Generator: Adobe Illustrator 17.0.2, SVG Export Plug-In . SVG Version: 6.00 Build 0)  -->
<!DOCTYPE svg PUBLIC "-//W3C//DTD SVG 1.1//EN" "http://www.w3.org/Graphics/SVG/1.1/DTD/svg11.dtd">
<svg version="1.1" id="Layer_1" xmlns="http://www.w3.org/2000/svg" xmlns:xlink="http://www.w3.org/1999/xlink" x="0px" y="0px"
	 width="2481px" height="2073px" viewBox="0 0 2481 2073" enable-background="new 0 0 2481 2073" xml:space="preserve">
<title>google maps pin</title>
<path id="svg_2" fill="#EDE732" stroke="#000000" stroke-width="37" stroke-miterlimit="10" d="M735.94,1840.629
	c-38.766-190.301-107.116-348.665-189.903-495.44c-61.407-108.872-132.544-209.363-198.364-314.938
	c-21.972-35.244-40.934-72.477-62.047-109.054c-42.216-73.137-76.444-157.935-74.269-267.932
	c2.125-107.473,33.208-193.684,78.03-264.172c73.719-115.935,197.201-210.989,362.884-235.969
	c135.466-20.424,262.475,14.082,352.543,66.748c73.6,43.038,130.596,100.527,173.92,168.28
	c45.22,70.716,76.359,154.26,78.971,263.232c1.337,55.83-7.805,107.532-20.684,150.418c-13.034,43.409-33.996,79.695-52.646,118.454
	c-36.406,75.659-82.049,144.982-127.855,214.346C920.083,1341.208,792.024,1551.912,735.94,1840.629z"/>
<path id="svg_3" opacity="0.2" enable-background="new    " d="M736.379,1935.407c131.604-120.864,211.314-235.977,269.138-350.49
	c42.892-84.942,70.542-169.166,106.953-254.061c12.156-28.34,28.508-56.568,42.519-85.3
	c28.018-57.449,72.657-118.133,169.03-178.096c94.16-58.588,193.955-93.756,291.58-114.697
	c160.565-34.442,344.277-37.299,502.593,15.593c129.444,43.246,204.674,113.469,233.778,178.863
	c23.783,53.438,21.428,108.185-1.045,163.103c-23.455,57.32-69.568,116.065-161.105,177.391
	c-46.898,31.417-98.9,56.333-146.412,74.868c-48.088,18.761-96.6,30.392-145.328,44.32c-95.119,27.188-192.42,47.153-289.891,67.076
	C1317.866,1733.316,1030.938,1798.298,736.379,1935.407z"/>
<circle id="svg_4" fill="#EDE732" cx="734.546" cy="652.047" r="183.333"/>
<circle id="svg_5" stroke="#000000" stroke-width="5" cx="733.5" cy="637" r="136.201"/>
</svg>
